<?xml version="1.0" encoding="UTF-8"?>
<svg width="200px" height="200px" viewBox="0 0 200 200" version="1.1" xmlns="http://www.w3.org/2000/svg" xmlns:xlink="http://www.w3.org/1999/xlink">
    <title>audiomack</title>
    <g id="audiomack" stroke="none" stroke-width="1" fill="none" fill-rule="evenodd">
        <circle fill="#F9AE00" cx="100" cy="100" r="100"></circle>
        <path d="M39.6416101,97.3612702 C39.6416101,97.3612702 42.3307805,96.9112702 43.4761678,98.0612702 C44.5717558,99.2112702 43.824764,101.61127 42.3805799,101.66127 C40.8865964,101.71127 39.5420112,101.96127 38.5460222,100.96127 C38.0433833,100.384626 37.8733023,99.5880992 38.0963288,98.8552549 C38.3193553,98.1224107 38.9038043,97.5573628 39.6416101,97.3612702 L39.6416101,97.3612702 Z" id="Path" fill="#F0F0F0"></path>
        <path d="M69.6296878,113.951978 C67.6008192,111.198472 66.8725074,101.639133 65.9361066,101.06765 C64.9997057,100.496168 61.5142136,106.36685 54.5432293,105.743414 C51.6820044,105.48365 48.7167349,103.613344 47,102.314521 C47.1560668,100.18445 47.1560668,95.0930628 51.4739153,96.7555567 C54.1270511,97.7426625 58.6009664,100.496168 62.554659,95.5606392 C66.9245297,90.1055811 69.3175542,91.7161221 70.7221555,92.9110396 C72.1787791,94.0540041 71.2423782,100.236403 73.3752913,98.5219565 C75.5082044,96.8075097 84.1959236,86.1052052 84.1959236,86.1052052 C84.1959236,86.1052052 90.9067965,79.4032767 91.947242,86.4169228 C92.9876874,93.4825219 97.3575581,101.327415 98.5540704,101.06765 C99.6985603,100.859839 113.224351,73.688454 115.149175,71.9220542 C117.073999,70.1556544 123.628805,70.4154191 123.316671,74.8833714 C123.004538,79.4032767 122.328248,107.353955 122.328248,107.353955 C122.328248,107.353955 121.547914,115.250801 122.796449,111.042614 C123.316671,109.276214 123.888916,107.717626 124.565206,105.84732 C127.894631,95.3008746 133.565059,77.2212535 136.426283,67.9216783 C137.050551,65.739655 137.622796,63.8173965 138.090996,62.3627143 L138.090996,62.3107614 C138.247063,61.6353732 138.40313,61.1158439 138.559197,60.6482675 C138.819308,59.8689735 138.975375,59.2974912 139.027397,59.1935853 C139.131442,58.8299148 139.495597,58.5701501 140.01582,58.3623384 C140.484021,58.0506208 141.056266,58.0506208 141.628511,58.0506208 C143.241201,57.894762 145.218047,58.1025737 147.038827,58.6221031 C147.611072,58.6221031 148.183317,58.7779619 148.703539,59.1935853 C148.703539,59.1935853 148.755562,59.1935853 148.807584,59.2455383 C148.963651,59.3494441 149.119718,59.5053029 149.327807,59.7650676 L149.379829,59.7650676 C149.431851,59.8689735 149.535896,60.0248323 149.63994,60.1287381 C150.628363,61.6353732 151.252631,64.3369258 150.628363,69.1685487 C149.067695,81.1696765 147.871183,105.899273 147.871183,105.899273 C147.871183,105.899273 147.611072,107.094191 150.160163,101.898897 C150.212185,101.691085 150.31623,101.535227 150.420274,101.379368 C150.576341,101.275462 150.732408,101.171556 150.940497,100.963744 C152.449143,99.0934388 156.610925,98.0543801 159.524172,98.0543801 C160.720684,98.2102389 161.761129,98.5219565 162.333374,98.885627 C163.477864,100.600074 162.801575,106.938332 162.801575,106.938332 C160.40855,107.146144 155.83059,108.444967 154.2179,108.652779 C152.60521,108.912543 150.160163,119.30313 146.726693,118.264071 C143.293223,117.17306 135.645949,112.445343 135.645949,111.821908 C135.645949,111.250425 136.270217,104.340685 136.426283,102.522332 L136.426283,102.106709 C136.58235,100.70398 136.478306,100.080545 135.802016,101.483274 C135.229771,102.678191 132.784725,110.419178 130.027544,118.835554 C129.767433,119.562895 124.565206,135.096822 123.888916,136.967128 C123.108582,139.149151 122.38027,140.863598 121.91207,141.694845 C121.23578,142.681951 120.247357,143.253433 118.894778,142.889762 C115.513331,141.850704 111.299527,137.278845 111.247504,136.135881 C111.14346,129.693717 111.559638,95.0930628 109.99897,97.9504742 C108.334257,100.911791 95.79689,121.4332 95.79689,121.4332 C95.5888009,121.485153 95.4327341,121.485153 95.224645,121.485153 C94.3402664,121.381248 92.9356651,121.121483 92.5715092,120.290236 C92.5715092,120.238283 92.5194869,120.18633 92.5194869,120.134377 C92.4674647,120.082424 92.4674647,120.030471 92.4154424,119.926565 C92.2593756,119.355083 92.2073533,118.731648 92.0512865,118.212119 C91.4790415,116.341813 90.5946629,113.64026 89.6062398,110.938708 C88.2016385,106.262944 86.6929926,101.483274 86.4328813,100.963744 C85.9646808,99.9246857 85.2883913,100.340309 84.6121018,100.963744 C81.8028992,103.301626 75.8723603,113.692213 70.4620441,114.263696 C70.2019328,114.315648 69.8897991,114.15979 69.6296878,113.951978 Z" id="Path" fill="#FFFFFF"></path>
    </g>
</svg>