<?xml version="1.0" encoding="UTF-8"?>
<svg width="200px" height="200px" viewBox="0 0 200 200" version="1.1" xmlns="http://www.w3.org/2000/svg" xmlns:xlink="http://www.w3.org/1999/xlink">
    <title>Mixcloud</title>
    <g id="Mixcloud" stroke="none" stroke-width="1" fill="none" fill-rule="evenodd">
        <circle fill="#F42F9B" cx="100" cy="100" r="100"></circle>
        <path d="M159.784957,142.882382 C158.87866,142.882382 157.950041,142.606431 157.137499,142.063578 C154.954351,140.557159 154.3695,137.539799 155.811538,135.368385 C160.21136,128.742616 162.54452,120.929952 162.508311,112.944011 C162.539988,104.955924 160.2073,97.1416872 155.811538,90.5105908 C154.346374,88.3035878 154.919387,85.3114753 157.092854,83.8199215 C159.270205,82.3413732 162.21666,82.9166854 163.695872,85.1091985 C169.131656,93.3589065 172.022276,103.060798 172,112.980202 C172,122.927992 169.142581,132.608879 163.695872,140.83311 C162.887795,142.29429 161.374324,143 159.860854,143 L159.784957,142.882382 Z M145.819988,134.860437 C144.858142,134.85447 143.920675,134.560112 143.131049,134.016129 C142.069815,133.327346 141.333589,132.244087 141.088695,131.011074 C140.843802,129.778061 141.110902,128.499329 141.829656,127.463762 C144.783276,123.176297 146.35628,118.10326 146.341452,112.912927 C146.322031,107.72909 144.752003,102.667209 141.829656,98.3665828 C141.111044,97.3270817 140.844118,96.0452685 141.088821,94.8089936 C141.333524,93.5727187 142.069347,92.485598 143.131049,91.791761 C144.198126,91.092124 145.502671,90.8423696 146.75614,91.0977397 C148.00961,91.3531098 149.108704,92.0925593 149.810321,93.1525335 C153.824928,99.0037005 155.98051,105.91051 156,112.984783 C156.019303,120.074616 153.86055,127.002551 149.810321,132.848469 C148.94879,134.204391 147.437435,135.019163 145.819988,135 L145.819988,134.860437 Z M123.230714,92.0040038 C121.360983,72.9413566 105.201489,58 85.5625926,58 C69.3812782,58.025417 54.9972065,68.2910156 49.7417831,83.5645313 C37.5055847,85.358926 28,95.9194536 28,108.618935 C28,122.602685 39.4201529,134 53.4812442,134 L118.679691,134 C130.427159,134 140,124.495525 140,112.793924 C139.994569,102.800321 133.018296,94.1584013 123.235198,92.0263778 L123.230714,92.0040038 Z M119.434649,124.691779 L54.0052518,124.691779 C45.2174371,124.691779 38,117.493904 38,108.614411 C38.0083431,104.347649 39.6995841,100.259116 42.7014128,97.2488622 C45.7032415,94.2386085 49.7695756,92.5534073 54.0052518,92.5642388 C58.2709191,92.5642388 62.3026047,94.2866521 65.3218692,97.2827446 C66.2141504,98.1895593 67.4291115,98.6996792 68.696606,98.6996792 C69.9641005,98.6996792 71.1790616,98.1895593 72.0713428,97.2827446 C73.8757021,95.469678 73.8757021,92.3738668 72.0713428,90.4837449 C68.8124762,87.2183495 64.7423435,84.8951737 60.2867619,83.7572679 C64.8866715,73.5528271 74.9846798,67 86.1102479,67 C101.769027,67 114.561529,79.8682401 114.561529,95.632854 C114.561529,98.7286652 114.093566,101.724758 113.108142,104.603001 C112.311704,107.154892 113.6481,109.865427 116.181403,110.790091 C116.639615,110.954305 117.121492,111.041587 117.607791,111.048453 C119.601136,111.048453 121.47749,109.774773 122.107441,107.789465 C122.736714,105.899944 123.19308,103.956398 123.470834,101.98312 C128.760448,104.063056 131.836781,109.635635 130.800025,115.259475 C129.763268,120.883316 124.905919,124.971776 119.227665,125 L119.434649,124.691779 Z" id="Shape" fill="#f0f0f0" fill-rule="nonzero"></path>
    </g>
</svg>