<?xml version="1.0" encoding="UTF-8"?>
<svg width="200px" height="200px" viewBox="0 0 200 200" version="1.1" xmlns="http://www.w3.org/2000/svg" xmlns:xlink="http://www.w3.org/1999/xlink">
    <title>Tiktok</title>
    <g id="Tiktok" stroke="none" stroke-width="1" fill="none" fill-rule="evenodd">
        <circle stroke="#979797" fill="#000000" cx="100" cy="100" r="99.5"></circle>
        <path d="M102.647566,51.0826919 C107.982843,51 113.287547,51.0490026 118.586135,51 C118.907169,57.2508959 121.151349,63.618173 125.719203,68.0375962 C130.277885,72.5672753 136.72608,74.6406984 143,75.3420483 L143,91.7854878 C137.120493,91.59254 131.213469,90.3674746 125.878191,87.8315894 C123.554517,86.7780332 121.389831,85.4212733 119.271007,84.0338868 C119.24349,95.9660232 119.319927,107.882846 119.194571,119.76598 C118.876594,125.474785 116.996253,131.156025 113.68196,135.860276 C108.349739,143.691506 99.0947902,148.796966 89.5891288,148.956224 C83.7585414,149.290055 77.9340689,147.69747 72.9656869,144.763438 C64.7319313,139.899929 58.9380335,130.996767 58.0941729,121.441257 C57.9878796,119.417546 57.971557,117.390098 58.0452535,115.364933 C58.7790453,107.594956 62.616165,100.161872 68.5721085,95.1054148 C75.3229931,89.2159132 84.779735,86.4105136 93.6341562,88.0704771 C93.7167077,94.1192372 93.4751679,100.161872 93.4751679,106.210632 C89.4301406,104.899812 84.7032984,105.267332 81.1688678,107.72665 C78.5829946,109.43305 76.6288392,111.943657 75.6073374,114.871844 C74.7634768,116.942204 75.0050166,119.242265 75.0539361,121.441257 C76.0231528,128.142364 82.456061,133.774602 89.3231293,133.165132 C93.875696,133.11613 98.2386997,130.469988 100.611293,126.595719 C101.378717,125.238959 102.237865,123.851573 102.283727,122.255925 C102.684255,114.951473 102.525267,107.677648 102.574186,100.373196 C102.607818,83.9113803 102.525267,67.4955048 102.650623,51.0857546 L102.647566,51.0826919 Z" id="Path" fill="#f0f0f0"></path>
    </g>
</svg>